<?xml version="1.0" standalone="no"?>
<!DOCTYPE svg PUBLIC "-//W3C//DTD SVG 20010904//EN"
 "http://www.w3.org/TR/2001/REC-SVG-20010904/DTD/svg10.dtd">
<svg version="1.0" xmlns="http://www.w3.org/2000/svg"
 width="248.000000pt" height="124.000000pt" viewBox="0 0 248.000000 124.000000"
 preserveAspectRatio="xMidYMid meet">

<g transform="translate(0.000000,124.000000) scale(0.100000,-0.100000)"
fill="000" stroke="none">
<path d="M222 1200 c-85 -13 -152 -75 -171 -161 -6 -26 -11 -235 -11 -521 l0
-478 1206 0 1205 0 -3 502 c-3 467 -4 506 -22 540 -20 41 -73 93 -115 111 -30
14 -1998 20 -2089 7z m2112 -71 c82 -73 78 -45 84 -576 l5 -473 -1172 0 -1171
0 0 444 c0 259 4 466 10 497 15 77 66 128 141 139 30 4 504 8 1055 9 l1001 1
47 -41z"/>
<path d="M617 973 c-22 -21 11 -63 49 -63 l24 0 0 -319 0 -319 -27 -7 c-39 -9
-53 -23 -53 -51 l0 -24 155 0 155 0 0 45 0 45 -60 0 -60 0 2 313 3 312 25 3
c28 4 50 27 50 54 0 16 -11 18 -128 18 -71 0 -132 -3 -135 -7z"/>
<path d="M1272 973 c-9 -3 5 -17 35 -38 48 -32 48 -32 204 -37 189 -6 226 -19
247 -83 26 -79 -16 -157 -93 -175 -22 -5 -104 -10 -182 -10 l-143 0 0 -179 0
-179 -27 -7 c-39 -9 -53 -23 -53 -51 l0 -24 128 1 c199 1 353 14 389 32 55 29
100 84 113 138 24 100 -20 184 -117 224 l-37 16 34 18 c19 10 48 35 65 56 27
33 30 44 30 103 -1 42 -7 78 -17 98 -26 47 -91 87 -157 95 -65 8 -400 10 -419
2z m446 -443 c96 -44 96 -187 -1 -233 -26 -13 -63 -17 -151 -17 l-116 0 0 135
0 135 113 0 c89 0 121 -4 155 -20z"/>
<path d="M1123 323 c-16 -21 -44 -59 -62 -85 l-32 -48 71 0 70 0 0 79 c0 44
-4 82 -9 85 -5 4 -22 -11 -38 -31z"/>
</g>
</svg>
